<svg width="169" height="210" viewBox="0 0 169 210" fill="none" xmlns="http://www.w3.org/2000/svg">
<path fill-rule="evenodd" clip-rule="evenodd" d="M34.173 0C36.9347 0 39.173 2.23859 39.173 5V125C39.173 127.761 36.9347 130 34.173 130H5.00108C1.93662 130 -0.406638 127.268 0.0591828 124.24L18.5211 4.23969C18.8961 1.80054 20.9947 0 23.4625 0H34.173ZM49.173 5C49.173 2.23859 51.4117 0 54.173 0H74.173C76.9347 0 79.173 2.23859 79.173 5V125C79.173 127.761 76.9347 130 74.173 130H54.173C51.4117 130 49.173 127.761 49.173 125V5ZM89.173 5C89.173 2.23859 91.4117 0 94.173 0H114.173C116.935 0 119.173 2.23859 119.173 5V125C119.173 127.761 116.935 130 114.173 130H94.173C91.4117 130 89.173 127.761 89.173 125V5ZM149.825 4.23969C149.45 1.80054 147.351 0 144.883 0H134.173C131.412 0 129.173 2.23859 129.173 5V125C129.173 127.761 131.412 130 134.173 130H163.345C166.409 130 168.753 127.268 168.287 124.24L149.825 4.23969ZM40.8956 163.684C40.0279 166.865 42.4225 170 45.7193 170H122.627C125.924 170 128.318 166.865 127.451 163.684L121.996 143.684C121.403 141.509 119.427 140 117.172 140H51.1739C48.919 140 46.9435 141.509 46.3502 143.684L40.8956 163.684ZM40.8956 186.316C40.0279 183.135 42.4225 180 45.7193 180H122.627C125.924 180 128.318 183.135 127.451 186.316L121.996 206.316C121.403 208.491 119.427 210 117.172 210H51.1739C48.919 210 46.9435 208.491 46.3502 206.316L40.8956 186.316ZM11.0001 145C11.0001 142.239 13.2389 140 16.0001 140H21.0001C23.7613 140 26.0001 142.239 26.0001 145V150C26.0001 152.761 23.7613 155 21.0001 155H16.0001C13.2389 155 11.0001 152.761 11.0001 150V145ZM16.0001 163C13.2389 163 11.0001 165.239 11.0001 168V173C11.0001 175.761 13.2389 178 16.0001 178H21.0001C23.7613 178 26.0001 175.761 26.0001 173V168C26.0001 165.239 23.7613 163 21.0001 163H16.0001Z" fill="#776274"/>
</svg>
